<?xml version="1.0" ?><svg id="house-delivery" viewBox="0 0 64 64" xmlns="http://www.w3.org/2000/svg"><defs><style>.cls-1,.cls-2{fill:none;stroke:#000;stroke-linejoin:round;stroke-width:2px;}.cls-1{stroke-linecap:round;}</style></defs><circle cx="49.9309" cy="48.3994" r="1.0691"/><circle class="cls-1" cx="6.5" cy="11.5" r="2.5"/><line class="cls-1" x1="27.5509" x2="30.5509" y1="7.0547" y2="10.0547"/><line class="cls-1" x1="30.5509" x2="27.5509" y1="7.0547" y2="10.0547"/><polyline class="cls-1" points="12.991 59.826 12 41 12 35.315"/><line class="cls-1" x1="21.8864" x2="21.0091" y1="43.1586" y2="59.8266"/><line class="cls-1" x1="17" x2="17" y1="45" y2="60"/><line class="cls-1" x1="2.305" x2="59.305" y1="59.9922" y2="59.9922"/><path class="cls-1" d="M25,28.8065V26.3333A3.3333,3.3333,0,0,0,21.6667,23H11.3334A3.3334,3.3334,0,0,0,8,26.3333V35h4v6h7.7249"/><path class="cls-1" d="M17,12h0a4,4,0,0,1,4,4v7a0,0,0,0,1,0,0H17.5184A4.5184,4.5184,0,0,1,13,18.4816V16A4,4,0,0,1,17,12Z"/><line class="cls-1" x1="12" x2="12" y1="35.3152" y2="41"/><path class="cls-1" d="M8,28v7H18a2,2,0,0,0,0-4H12V27.9731"/><rect class="cls-1" height="14" width="15" x="20" y="29"/><line class="cls-2" x1="26" x2="26" y1="43" y2="32"/><line class="cls-2" x1="29" x2="29" y1="32" y2="43"/><polyline class="cls-1" points="58 13.703 58 26 40 26 40 13.703"/><path class="cls-1" d="M60.999,15.5a1.4962,1.4962,0,0,1-.9594-.3477L49,5.9521l-11.04,9.2A1.5,1.5,0,0,1,36.04,12.8477l12-10a1.502,1.502,0,0,1,1.9208,0l12,10A1.5,1.5,0,0,1,60.999,15.5Z"/><polyline class="cls-1" points="46 25.692 46 17 52 17 52 25.645"/><path class="cls-1" d="M49,28.5v4.0231a3.8041,3.8041,0,0,1-3.8041,3.8041H43.8041A3.804,3.804,0,0,0,40,40.1313h0a3.8041,3.8041,0,0,0,3.8041,3.8041H55.1772a3.8041,3.8041,0,0,1,3.8041,3.7906l.0052,1.4564A3.8042,3.8042,0,0,1,55.1824,53H28"/><line class="cls-2" x1="20" x2="35" y1="32" y2="32"/><line class="cls-2" x1="16" x2="16" y1="35" y2="31"/></svg>